<svg width="18" height="58" viewBox="0 0 18 58" fill="none" xmlns="http://www.w3.org/2000/svg">
<path fill-rule="evenodd" clip-rule="evenodd" d="M1.24927 0.236311C1.78253 -0.0286537 2.40009 -0.0727156 2.96611 0.113818C3.53212 0.300351 4.00024 0.702201 4.26748 1.23097L17.7617 27.9931C17.9184 28.3032 18 28.6453 18 28.9922C18 29.3391 17.9184 29.6812 17.7617 29.9914L4.26748 56.7535C4.13656 57.0176 3.95421 57.2535 3.73094 57.4474C3.50767 57.6413 3.24789 57.7895 2.96659 57.8834C2.68529 57.9773 2.38803 58.0151 2.09194 57.9945C1.79585 57.974 1.5068 57.8955 1.24144 57.7637C0.976077 57.6318 0.739664 57.4492 0.545827 57.2263C0.35199 57.0034 0.204564 56.7446 0.112047 56.465C0.0195295 56.1853 -0.0162476 55.8903 0.00677751 55.5968C0.0298026 55.3034 0.111175 55.0174 0.246202 54.7553L13.2321 28.9922L0.246202 3.22921C-0.0210026 2.70042 -0.0654381 2.08804 0.122672 1.52677C0.310782 0.965496 0.716031 0.501308 1.24927 0.236311Z" fill="#007B8D"/>
</svg>
