<svg width="18" height="58" viewBox="0 0 18 58" fill="none" xmlns="http://www.w3.org/2000/svg">
<path fill-rule="evenodd" clip-rule="evenodd" d="M16.7462 0.234535C17.2783 0.499548 17.6827 0.962971 17.8707 1.52319C18.0587 2.08342 18.0151 2.69472 17.7493 3.22307L4.76338 28.9913L17.7538 54.7552C17.8888 55.0173 17.9702 55.3033 17.9932 55.5967C18.0162 55.8902 17.9805 56.1853 17.888 56.4649C17.7954 56.7446 17.648 57.0033 17.4542 57.2262C17.2603 57.4491 17.0239 57.6318 16.7586 57.7637C16.4932 57.8955 16.2041 57.974 15.9081 57.9946C15.612 58.0151 15.3147 57.9774 15.0334 57.8834C14.7521 57.7895 14.4923 57.6413 14.2691 57.4474C14.0458 57.2535 13.8634 57.0176 13.7325 56.7535L0.238322 29.9905C0.0816032 29.6804 0 29.3382 0 28.9913C0 28.6444 0.0816032 28.3023 0.238322 27.9922L13.7325 1.22923C13.9998 0.701603 14.4671 0.300598 15.032 0.114135C15.597 -0.072327 16.2134 -0.0290292 16.7462 0.234535Z" fill="#007B8D"/>
</svg>
