<?xml version="1.0" encoding="utf-8"?>
<!-- Generator: Adobe Illustrator 15.0.2, SVG Export Plug-In . SVG Version: 6.00 Build 0)  -->
<!DOCTYPE svg PUBLIC "-//W3C//DTD SVG 1.0//EN" "http://www.w3.org/TR/2001/REC-SVG-20010904/DTD/svg10.dtd">
<svg version="1.0" id="レイヤー_1" xmlns="http://www.w3.org/2000/svg" xmlns:xlink="http://www.w3.org/1999/xlink" x="0px"
	 y="0px" width="800px" height="176.351px" viewBox="0 0 800 176.351" enable-background="new 0 0 800 176.351"
	 xml:space="preserve">
<g>
	<g>
		<path d="M770.324,152.622H691c-10.25,0-10-11.507-10-13.257v-8.743h72c2.833,0,25-1.417,25-24s-21-25-25-25h-62
			c-7.91,0-13.094,2.851-16.5,6.792c-3.406-3.941-8.59-6.985-16.5-6.985c-8.632,0-14.164,3.515-17.715,7.989
			c-3.725-4.479-9.461-8.038-18.285-8.038c-9.105,0-14.93,3.57-18.642,8.101c-3.723-4.521-9.476-8.113-18.358-8.113
			c-22.583,0-25,21.996-25,25.996v32c0,1.75,0.25,13.257-10,13.257h-62c-10.25,0-10-11.507-10-13.257v-50
			c0-1.75-0.417-25.743-23-25.743h-49c-22.583,0-23,23.993-23,25.743v34.257h-23.839c-3.59,0-6.24,2.911-6.24,6.5
			s2.478,6.5,6.068,6.5H383v15.493v7.25v0.381c0,3.59,2.91,6.24,6.5,6.24c3.588,0,6.5-2.52,6.5-6.111v-0.51v-7v-16l24-0.008
			c3-0.084,6.123-2.827,6.123-6.364c0-3.588-2.48-6.371-6.071-6.371H396V89.365c0-1.75-0.25-12.743,10-12.743h49
			c10.25,0,10,10.993,10,12.743v50c0,1.724,0.42,25.25,22,25.966v0.291h64v-0.291c21.58-0.716,22-24.242,22-25.966v-32
			c0-1.75,1.75-13,12-13s12,11.25,12,13v44.75v7.631v0.876h0.031c0.313,3,3.089,5.621,6.469,5.621c3.422,0,6.222-2.621,6.475-5.621
			H610v-0.747v-7.51v-45c0-1.75,1.75-13,12-13s12,11.25,12,13v44.75v7.631v0.876h0.031c0.313,3,3.089,5.621,6.469,5.621
			c3.422,0,6.222-2.621,6.475-5.621H647v-0.747v-7.51v-45c0-1.75,0.75-13,11-13s10,11.25,10,13v32c0,1.724,0.42,25.25,22,25.966
			v0.291h80.195c3.59,0,6.24-2.91,6.24-6.5C776.436,155.534,773.916,152.622,770.324,152.622z M691,94.622h62c1.75,0,12,1.75,12,12
			s-10.25,11-12,11h-72v-10.257C681,105.615,680.75,94.622,691,94.622z"/>
		<path d="M352,107.746c0,3.59,2.91,6.24,6.5,6.24c3.588,0,6.5-2.52,6.5-6.111v-1.51c0-1.75-0.417-23.743-23-23.743h-62
			c-7.911,0-13.094,2.979-16.5,6.921c-3.406-3.941-8.589-6.921-16.5-6.921h-33.017c8.529-10,14.017-22.016,14.017-31
			c0-16.149-17.72-41-39-41H60c-21.28,0-38,20.594-38,36.743v112v0.381c0,3.59,2.91,6.24,6.5,6.24c3.588,0,6.5-2.52,6.5-6.111v-0.51
			V95.622h127.744c-2.639,6-2.744,11.898-2.744,12.743v31c0,1.724,0.42,25.25,22,25.966v0.291h75h2h11v-57.726
			c0.013-2.725,0.429-12.274,10-12.274h62c9.571,0,9.987,7.807,10,10.3V107.746z M35,47.365c0-10.625,11-23.743,25-23.743h129
			c14,0,26,17.375,26,28s-12,31-26,31H35V47.365z M183,95.622h64c8.22,0,9.686,7.231,9.945,11c-0.259,3.769-1.725,11-9.945,11h-74
			v-9.257C173,106.615,172.75,95.622,183,95.622z M183,152.622c-10.25,0-10-11.507-10-13.257v-8.743h74c3.989,0,7.274-1.024,10-2.28
			v24.28H183z"/>
	</g>
	<path d="M550,144.622h-62c-1.104,0-2-0.896-2-2s0.896-2,2-2h62c1.104,0,2,0.896,2,2S551.104,144.622,550,144.622z"/>
</g>
</svg>
