<?xml version="1.0" encoding="utf-8"?>
<!-- Generator: Adobe Illustrator 24.3.0, SVG Export Plug-In . SVG Version: 6.00 Build 0)  -->
<svg version="1.1" id="レイヤー_1" xmlns="http://www.w3.org/2000/svg" xmlns:xlink="http://www.w3.org/1999/xlink" x="0px"
	 y="0px" viewBox="0 0 800 176.4" style="enable-background:new 0 0 800 176.4;" xml:space="preserve">
<style type="text/css">
	.st0{fill:#FFFFFF;}
</style>
<g>
	<g>
		<path class="st0" d="M770.3,152.6H691c-10.2,0-10-11.5-10-13.3v-8.7h72c2.8,0,25-1.4,25-24s-21-25-25-25h-62
			c-7.9,0-13.1,2.9-16.5,6.8c-3.4-3.9-8.6-7-16.5-7c-8.6,0-14.2,3.5-17.7,8c-3.7-4.5-9.5-8-18.3-8c-9.1,0-14.9,3.6-18.6,8.1
			c-3.7-4.5-9.5-8.1-18.4-8.1c-22.6,0-25,22-25,26v32c0,1.8,0.2,13.3-10,13.3h-62c-10.2,0-10-11.5-10-13.3v-50
			c0-1.8-0.4-25.7-23-25.7h-49c-22.6,0-23,24-23,25.7v34.3h-23.8c-3.6,0-6.2,2.9-6.2,6.5c0,3.6,2.5,6.5,6.1,6.5h24v15.5v7.2v0.4
			c0,3.6,2.9,6.2,6.5,6.2c3.6,0,6.5-2.5,6.5-6.1v-0.5v-7v-16l24,0c3-0.1,6.1-2.8,6.1-6.4c0-3.6-2.5-6.4-6.1-6.4H396V89.4
			c0-1.8-0.2-12.7,10-12.7h49c10.2,0,10,11,10,12.7v50c0,1.7,0.4,25.2,22,26v0.3h64v-0.3c21.6-0.7,22-24.2,22-26v-32
			c0-1.8,1.8-13,12-13s12,11.2,12,13v44.8v7.6v0.9h0c0.3,3,3.1,5.6,6.5,5.6c3.4,0,6.2-2.6,6.5-5.6h0v-0.7v-7.5v-45
			c0-1.8,1.8-13,12-13s12,11.2,12,13v44.8v7.6v0.9h0c0.3,3,3.1,5.6,6.5,5.6c3.4,0,6.2-2.6,6.5-5.6h0v-0.7v-7.5v-45
			c0-1.8,0.8-13,11-13s10,11.2,10,13v32c0,1.7,0.4,25.2,22,26v0.3h80.2c3.6,0,6.2-2.9,6.2-6.5C776.4,155.5,773.9,152.6,770.3,152.6z
			 M691,94.6h62c1.8,0,12,1.8,12,12s-10.2,11-12,11h-72v-10.3C681,105.6,680.8,94.6,691,94.6z"/>
		<path class="st0" d="M352,107.7c0,3.6,2.9,6.2,6.5,6.2c3.6,0,6.5-2.5,6.5-6.1v-1.5c0-1.8-0.4-23.7-23-23.7h-62
			c-7.9,0-13.1,3-16.5,6.9c-3.4-3.9-8.6-6.9-16.5-6.9h-33c8.5-10,14-22,14-31c0-16.1-17.7-41-39-41H60c-21.3,0-38,20.6-38,36.7v112
			v0.4c0,3.6,2.9,6.2,6.5,6.2c3.6,0,6.5-2.5,6.5-6.1v-0.5V95.6h127.7c-2.6,6-2.7,11.9-2.7,12.7v31c0,1.7,0.4,25.2,22,26v0.3h75h2h11
			v-57.7c0-2.7,0.4-12.3,10-12.3h62c9.6,0,10,7.8,10,10.3V107.7z M35,47.4c0-10.6,11-23.7,25-23.7h129c14,0,26,17.4,26,28
			s-12,31-26,31H35V47.4z M183,95.6h64c8.2,0,9.7,7.2,9.9,11c-0.3,3.8-1.7,11-9.9,11h-74v-9.3C173,106.6,172.8,95.6,183,95.6z
			 M183,152.6c-10.2,0-10-11.5-10-13.3v-8.7h74c4,0,7.3-1,10-2.3v24.3H183z"/>
	</g>
	<path class="st0" d="M550,144.6h-62c-1.1,0-2-0.9-2-2s0.9-2,2-2h62c1.1,0,2,0.9,2,2S551.1,144.6,550,144.6z"/>
</g>
</svg>
